<?xml version="1.0" encoding="utf-8"?>
<svg version="1.1" xmlns="http://www.w3.org/2000/svg" xmlns:xlink="http://www.w3.org/1999/xlink" x="0px" y="0px"
	 viewBox="0 0 60.3 58.7" enable-background="new 0 0 60.3 58.7" xml:space="preserve">
<g id="Layer_1" display="none">
	<g display="inline">
		<path d="M9,33h22v4h2v-4h22v4h2v-5c0-0.6-0.4-1-1-1H33v-4h-2v4H8c-0.6,0-1,0.4-1,1v5h2V33z"/>
		<path d="M15.5,25H46c0.1,0,0.2,0,0.3,0c4.7-0.4,8.1-4.5,7.8-9.2C53.7,11.4,49.9,8,45.5,8c-1.2,0-2.3,0.2-3.4,0.7
			C40.4,4.7,36.4,2,32,2c-4.2,0-8,2.4-9.9,6.1c-3.3-0.6-6.4,1.5-7,4.7C15,13.2,15,13.6,15,14l0,0c-3,0.1-5.4,2.7-5.2,5.7
			S12.5,25.1,15.5,25z M15.5,16h0.6c0.3,0,0.6-0.1,0.8-0.4c0.2-0.2,0.3-0.5,0.2-0.8C17,14.5,17,14.3,17,14c0-2.2,1.8-4,4-4
			c0.5,0,0.9,0.1,1.4,0.3c0.5,0.2,1.1-0.1,1.3-0.6C25,6.2,28.3,4,32,4c4,0,7.5,2.6,8.6,6.4c0.1,0.5,0.7,0.8,1.2,0.7
			c0.1,0,0.2-0.1,0.2-0.1c1-0.6,2.2-1,3.4-1c3.6-0.1,6.6,2.7,6.7,6.3s-2.7,6.6-6.3,6.7h-0.2H15.5c-1.9,0-3.5-1.6-3.5-3.5
			S13.6,16,15.5,16z"/>
		<path d="M41,57c1.7,0,3-1.3,3-3V42c0-1.7-1.3-3-3-3H23c-1.7,0-3,1.3-3,3v12c0,1.7,1.3,3,3,3h5.8l-0.6,3H27v2h10v-2h-1.2l-0.6-3H41
			z M23,41h18c0.6,0,1,0.4,1,1v9H22v-9C22,41.4,22.4,41,23,41z M22,54v-1h20v1c0,0.6-0.4,1-1,1H23C22.4,55,22,54.6,22,54z M33.8,60
			h-3.6l0.6-3h2.4L33.8,60z"/>
		<path d="M4.4,56h7.2c1.3,0,2.4-1.1,2.4-2.4V42.4c0-1.3-1.1-2.4-2.4-2.4H4.4C3.1,40,2,41.1,2,42.4v11.2C2,54.9,3.1,56,4.4,56z
			 M4,42.4C4,42.2,4.2,42,4.4,42c0,0,0,0,0,0h7.2c0.2,0,0.4,0.2,0.4,0.4l0,0v11.2c0,0.2-0.2,0.4-0.4,0.4h0H4.4C4.2,54,4,53.8,4,53.6
			l0,0V42.4z"/>
		<rect x="6" y="50" width="4" height="2"/>
		<path d="M62,41c0-0.6-0.4-1-1-1H50c-0.6,0-1,0.4-1,1v8.7l-2.9,4.8c-0.3,0.5-0.1,1.1,0.4,1.4C46.6,56,46.8,56,47,56h11
			c0.4,0,0.7-0.2,0.9-0.5l3-5v-0.1c0,0,0-0.1,0-0.1c0.1-0.1,0.1-0.2,0.1-0.3l0,0V41z M51,42h9v7h-9V42z M57.4,54h-8.7l1.8-3h8.7
			L57.4,54z"/>
	</g>
</g>
<g id="Layer_2">
	<polyline fill="none" stroke="#FFFFFF" stroke-width="0.7087" stroke-linejoin="round" stroke-miterlimit="10" points="6,33.8 
		6,29.1 26.4,29.1 	"/>
	<polyline fill="none" stroke="#FFFFFF" stroke-width="0.7087" stroke-linejoin="round" stroke-miterlimit="10" points="54,33.8 
		54,29.1 33.6,29.1 	"/>
	
		<line fill="none" stroke="#FFFFFF" stroke-width="0.7087" stroke-linejoin="round" stroke-miterlimit="10" x1="30" y1="24.1" x2="30" y2="33.9"/>
	<path fill="none" stroke="#FFFFFF" stroke-width="0.7087" stroke-miterlimit="10" d="M12.6,21.8c2.4,0,24.8,0,30.5,0
		s7.8-3.6,7.8-7.4S46.6,4.3,40.1,8c-3-4.9-6.1-7.1-10.4-7.1s-8.1,2.5-8.9,6.5c-3.5-0.9-7.5,1.3-6.5,5.6c-4,0-5.4,2.6-5.4,4.6
		S10.2,21.8,12.6,21.8z"/>
	<path fill="none" stroke="#FFFFFF" stroke-width="0.7087" stroke-linecap="round" stroke-miterlimit="10" d="M32.8,11.5
		c0-0.8,0.7-1.5,1.5-1.5c0.8,0,1.5,0.7,1.5,1.5"/>
	<path fill="none" stroke="#FFFFFF" stroke-width="0.7087" stroke-linecap="round" stroke-miterlimit="10" d="M24.6,11.6
		c0-0.8,0.7-1.5,1.5-1.5c0.8,0,1.5,0.7,1.5,1.5"/>
	<path fill="none" stroke="#FFFFFF" stroke-width="0.7087" stroke-linecap="round" stroke-miterlimit="10" d="M32.4,15.4
		c0,1.2-1,2.2-2.2,2.2c-1.2,0-2.2-1-2.2-2.2"/>
	
		<path fill="none" stroke="#FFFFFF" stroke-width="0.7087" stroke-linecap="round" stroke-linejoin="round" stroke-miterlimit="10" d="
		M9.4,51.3H2.7c-0.9,0-1.6-0.7-1.6-1.6V38.7c0-0.9,0.7-1.6,1.6-1.6h6.7c0.9,0,1.6,0.7,1.6,1.6v10.9C11,50.6,10.3,51.3,9.4,51.3z"/>
	
		<line fill="none" stroke="#FFFFFF" stroke-width="0.7087" stroke-linejoin="round" stroke-miterlimit="10" x1="4.1" y1="47" x2="8.1" y2="47"/>
	
		<path fill="none" stroke="#FFFFFF" stroke-width="0.7087" stroke-linecap="round" stroke-linejoin="round" stroke-miterlimit="10" d="
		M39,52.1H21.2c-1.2,0-2.2-1-2.2-2.2v-2.2v-9.6c0-1.2,1-2.2,2.2-2.2H39c1.2,0,2.2,1,2.2,2.2V50C41.1,51.2,40.2,52.1,39,52.1z"/>
	
		<line fill="none" stroke="#FFFFFF" stroke-width="0.7087" stroke-linecap="round" stroke-linejoin="round" stroke-miterlimit="10" x1="40.8" y1="47.8" x2="19.9" y2="47.8"/>
	
		<line fill="none" stroke="#FFFFFF" stroke-width="0.7087" stroke-linejoin="round" stroke-miterlimit="10" x1="24.8" y1="57" x2="35" y2="57"/>
	
		<line fill="none" stroke="#FFFFFF" stroke-width="0.7087" stroke-linejoin="round" stroke-miterlimit="10" x1="28" y1="51.9" x2="27" y2="56.9"/>
	
		<line fill="none" stroke="#FFFFFF" stroke-width="0.7087" stroke-linejoin="round" stroke-miterlimit="10" x1="31.8" y1="52.1" x2="33.1" y2="57"/>
	<polygon fill="none" stroke="#FFFFFF" stroke-width="0.7087" stroke-linejoin="round" stroke-miterlimit="10" points="59,46 
		55.9,51.1 44.5,51.1 47.9,46 47.9,36.9 59,36.9 	"/>
	
		<line fill="none" stroke="#FFFFFF" stroke-width="0.7087" stroke-linejoin="round" stroke-miterlimit="10" x1="47.6" y1="46.1" x2="59" y2="46.1"/>
</g>
</svg>
