<svg width="200" height="59" viewBox="0 0 200 59" fill="none" xmlns="http://www.w3.org/2000/svg">
<rect x="0.5" y="0.5" width="199" height="58" stroke="black"/>
<path d="M32.5 20C32.5 18.1667 33.6 14.1 38 12.5C38 16.9 34.3333 19.3333 32.5 20Z" stroke="black" stroke-opacity="0.9" stroke-linejoin="bevel"/>
<path d="M20 24.5C23.2 19.7 29 21.1667 31.5 22.5C38.235 19.3457 41.2401 19.9499 45.5001 24.5C44.0001 24.6667 41.0001 26 41.0001 30C41.0001 35 45.5001 37 45.5001 37C45.5001 37 44.0001 45.5 39.0001 46.5C36.2544 47.0491 33.6667 45.3333 33.0001 44.5C33.3334 45.1667 30.5 47 27 46.5C20.0704 45.5101 16 30.5 20 24.5Z" stroke="black" stroke-opacity="0.9" stroke-linejoin="bevel"/>
<path d="M59.5 21V13C60.1667 13 61.0002 12.9753 63 13C67.6487 13.0573 67 21 63 21H59.5Z" stroke="black" stroke-opacity="0.9" stroke-linejoin="bevel"/>
<path d="M72 21C70.3636 21 69 19.4091 69 17.5C69 15.5909 70.3431 14 72 14C73.6569 14 75 15.2727 75 17.5C75 19.7273 73.6364 21 72 21Z" stroke="black"/>
<path d="M103 21C101.364 21 100 19.4091 100 17.5C100 15.5909 101.343 14 103 14C104.657 14 106 15.2727 106 17.5C106 19.7273 104.636 21 103 21Z" stroke="black"/>
<path d="M77.5 15L79 21.5L81.5 15.5L83.5 21L86 15M89 15V17M89 21.5V17M94 21.5C94 20.3333 94 17.7 94 16.5C94 15 90 14 89 17M97.5 12V21.5" stroke="black" stroke-opacity="0.9" stroke-linejoin="bevel"/>
<mask id="mask0_15_600" style="mask-type:alpha" maskUnits="userSpaceOnUse" x="10" y="0" width="181" height="59">
<path d="M10 0H191V59H10V0Z" fill="#D9D9D9"/>
</mask>
<g mask="url(#mask0_15_600)">
<path d="M164.21 17.64H169C169 16.76 168.521 15 166.605 15C163.013 15 163.252 21 166.605 21C168.282 21 168.761 20.28 169 19.56" stroke="black" stroke-opacity="0.9" stroke-linejoin="bevel"/>
<path d="M156 12V17.75M156 21.5V17.75M161 21.5C161 20.3333 161 18.6 161 17C161 15 157 14.5 156 17.75" stroke="black" stroke-opacity="0.9" stroke-linejoin="bevel"/>
<path d="M109 15.2534C110.176 13.1363 114 13.7411 114 16.7656C114 19.4272 114 20.6975 114 21" stroke="black"/>
<path d="M114 17.8331C113.211 15.2776 109 15.2136 109 18.7915C109 22.3693 114 21.0276 114 18.7915" stroke="black"/>
<path d="M122 11.2534C122 14 122 13.7411 122 16.7656C122 19.4272 122 20.6975 122 21" stroke="black"/>
<path d="M122 17.8331C121.211 15.2776 117 15.2136 117 18.7915C117 22.3693 122 21.0276 122 18.7915" stroke="black"/>
<path d="M132 21C130.364 21 129 19.4091 129 17.5C129 15.5909 130.343 14 132 14C133.657 14 135 15.2727 135 17.5C135 19.7273 133.636 21 132 21Z" stroke="black"/>
<path d="M138 15V17M138 21.5V17M143 21.5C143 20.3333 143 17.7 143 16.5C143 15 139 14 138 17" stroke="black" stroke-opacity="0.9" stroke-linejoin="bevel"/>
<path d="M150.867 13V19.75C150.867 20.1667 151.187 21 152.467 21M149 15H153" stroke="black" stroke-opacity="0.9" stroke-linejoin="bevel"/>
<path d="M59 45.5L61.0429 40M72.5 45.5L70.3 40M61.0429 40L65.5 28L70.3 40M61.0429 40H70.3M78 32.5C78 32.5 78 35.2426 78 37M78 51C78 51 78 45.8195 78 42.5M78 37C80.5 31.5 89 31.1 89 39.5C89 47.9 80 47.5 78 42.5M78 37C78 39.1479 78 40.3521 78 42.5M94 32.5V37M94 37C96.5 31.5 105 31.1 105 39.5C105 47.9 96 47.5 94 42.5M94 37V42.5M94 42.5V51" stroke="black" stroke-opacity="0.9" stroke-width="2" stroke-linejoin="bevel"/>
<path d="M127.5 32C127.167 30.6667 125.5 28 121.5 28C116 28 113 35 121.5 36.5C130 38 126.528 45.5 122 45.5C119.5 45.5 116.5 45 115 41M134 29.5V43C134 43.8333 134.6 45.5 137 45.5M130.5 33.5H138M146.5 33.5C150.5 33.5 152 36.5 152 39.5C152 42.5 150 45.5 146.5 45.5C143 45.5 141 43.5 141 40C141 37.2 142.5 33.5 146.5 33.5Z" stroke="black" stroke-opacity="0.9" stroke-width="2" stroke-linejoin="bevel"/>
<path d="M157.5 32.5V38M157.5 46V38M163.5 33C161.5 33 157.5 34 157.5 38M166 39H176C176 37.1667 175 33.5 171 33.5C163.5 33.5 164 46 171 46C174.5 46 175.5 44.5 176 43" stroke="black" stroke-opacity="0.9" stroke-width="2" stroke-linejoin="bevel"/>
</g>
</svg>
