<svg   viewBox="0 0 121 100" fill="none" xmlns="http://www.w3.org/2000/svg"> 
<path d="M49.2458 98C75.5739 98 96.9171 76.7335 96.9171 50.5C96.9171 24.2665 75.5739 3 49.2458 3C22.9176 3 1.57446 24.2665 1.57446 50.5C1.57446 76.7335 22.9176 98 49.2458 98Z" stroke-miterlimit="10"/>
<path d="M60.2854 98C86.6136 98 107.957 76.7335 107.957 50.5C107.957 24.2665 86.6136 3 60.2854 3C33.9573 3 12.6141 24.2665 12.6141 50.5C12.6141 76.7335 33.9573 98 60.2854 98Z"  stroke-miterlimit="10"/>
<path d="M72.3287 98C98.6568 98 120 76.7335 120 50.5C120 24.2665 98.6568 3 72.3287 3C46.0005 3 24.6573 24.2665 24.6573 50.5C24.6573 76.7335 46.0005 98 72.3287 98Z"   stroke-miterlimit="10"/>
</svg>
