<svg width="710" height="816" viewBox="0 0 710 816" fill="none" xmlns="http://www.w3.org/2000/svg">
<path d="M146.823 113.977C146.823 136.837 128.11 155.453 104.923 155.453C81.736 155.453 63.0234 136.837 63.0234 113.977C63.0234 91.1161 81.736 72.5 104.923 72.5C128.11 72.5 146.823 91.1161 146.823 113.977Z" stroke="white" stroke-width="11"/>
<path d="M341.993 348.072L458.819 17L578.126 348.072" stroke="white" stroke-width="11"/>
<path d="M704.712 348.072L585.413 17L521.324 188.216" stroke="white" stroke-width="11"/>
<path d="M6.34766 815.072V1" stroke="white" stroke-width="11"/>
<path d="M286.428 815.072V1" stroke="white" stroke-width="11"/>
<path d="M8.61816 424.153H286.428" stroke="white" stroke-width="11"/>
<path d="M707.712 473.012C670.018 481.777 642.165 512.691 642.165 549.483C642.165 586.275 670.018 617.189 707.712 625.954" stroke="white" stroke-width="11"/>
<path d="M707.712 629.876C670.018 638.641 642.165 669.556 642.165 706.347C642.165 743.139 670.018 774.053 707.712 782.818" stroke="white" stroke-width="11"/>
</svg>
