<?xml version="1.0" encoding="UTF-8"?>
<svg id="Layer_1" data-name="Layer 1" xmlns="http://www.w3.org/2000/svg" viewBox="0 0 34.82 35">
   
  <circle class="cls-1" cx="4.52" cy="4.52" r="4.27"/>
  <rect class="cls-1" x="1.06" y="12.33" width="7.21" height="22.42" rx=".41" ry=".41"/>
  <line class="cls-1" x1="6.47" y1="27.94" x2="8.79" y2="27.94"/>
  <line class="cls-1" x1="6.47" y1="31.35" x2="8.79" y2="31.35"/>
  <line class="cls-1" x1="18.23" y1="27.94" x2="20.03" y2="27.94"/>
  <line class="cls-1" x1="18.23" y1="31.35" x2="20.03" y2="31.35"/>
  <path class="cls-1" d="m34.57,30.02v3.74c0,.46,0,.99-.63.99h-6.13c-.55,0-.42-.65-.42-.65v-12.64c0-1.06-.38-3.73-3.61-3.73s-4.35,3.73-4.35,3.73v12.88c0,.23-.18.41-.41.41h-6.14c-.23,0-.41-.18-.41-.41V12.74c0-.23.18-.41.41-.41h6.14c.23,0,.41.18.41.41v2.18s2.3-3.57,5.86-3.57h2.6c2.81,0,6.67,2.39,6.67,7.93v8.02"/>
</svg>