<svg width="71" height="65" viewBox="0 0 71 65" fill="none" xmlns="http://www.w3.org/2000/svg">
  <path d="M44.0781 63.3071L41.79 56.8322M1.00164 63.3071L22.7662 3L37.6271 44.6151" fill="none" />
  <path d="M69.3848 63.3071L48.2688 3L35.462 38.8151" fill="none" />
  <path d="M54.3076 36.3843C53.6595 33.5974 51.3739 31.5382 48.6538 31.5382C45.9337 31.5382 43.648 33.5974 43 36.3843" fill="none" />
  <path d="M27.9248 36.3843C27.2767 33.5974 24.9911 31.5382 22.271 31.5382C19.5508 31.5382 17.2652 33.5974 16.6172 36.3843" fill="none" />
  <path d="M21.9711 44.9609C22.2393 52.1768 28.2886 57.9608 35.7309 57.9608C43.1733 57.9608 49.2225 52.1768 49.4907 44.9609H21.9711Z" fill="none" />
  <path d="M3.81145 12.7937C3.81145 14.4315 5.15234 15.7668 6.81588 15.7668C8.47942 15.7668 9.82031 14.4315 9.82031 12.7937C9.82031 11.1559 8.47942 9.82056 6.81588 9.82056C5.15234 9.82056 3.81145 11.1559 3.81145 12.7937Z" fill="none" />
</svg>