<svg version="1.1"  xmlns="http://www.w3.org/2000/svg" xmlns:xlink="http://www.w3.org/1999/xlink" x="0px" y="0px"
       viewBox="0 0 100 100" style="enable-background:new 0 0 100 100;" xml:space="preserve">
<rect x="0.3" y="0.1" width="3.6" height="3.6"/>
<rect x="24.2" y="0.1" width="3.6" height="3.6"/>
<rect x="48.1" y="0.1" width="3.6" height="3.6"/>
<rect x="72" y="0.1" width="3.6" height="3.6"/>
<rect x="95.9" y="0.1" width="3.6" height="3.6"/>
<rect x="0.3" y="24" width="3.6" height="3.6"/>
<rect x="24.2" y="24" width="3.6" height="3.6"/>
<rect x="48.1" y="24" width="3.6" height="3.6"/>
<rect x="72" y="24" width="3.6" height="3.6"/>
<rect x="95.9" y="24" width="3.6" height="3.6"/>
<rect x="0.3" y="47.9" width="3.6" height="3.6"/>
<rect x="24.2" y="47.9" width="3.6" height="3.6"/>
<rect x="48.1" y="47.9" width="3.6" height="3.6"/>
<rect x="72" y="47.9" width="3.6" height="3.6"/>
<rect x="95.9" y="47.9" width="3.6" height="3.6"/>
<rect x="0.3" y="71.8" width="3.6" height="3.6"/>
<rect x="24.2" y="71.8" width="3.6" height="3.6"/>
<rect x="48.1" y="71.8" width="3.6" height="3.6"/>
<rect x="72" y="71.8" width="3.6" height="3.6"/>
<rect x="95.9" y="71.8" width="3.6" height="3.6"/>
<rect x="0.3" y="95.7" width="3.6" height="3.6"/>
<rect x="24.2" y="95.7" width="3.6" height="3.6"/>
<rect x="48.1" y="95.7" width="3.6" height="3.6"/>
<rect x="72" y="95.7" width="3.6" height="3.6"/>
<rect x="95.9" y="95.7" width="3.6" height="3.6"/>
</svg>