<svg width="208" height="59" viewBox="0 0 208 59" fill="none" xmlns="http://www.w3.org/2000/svg">
  <path d="M184 34L189 44M193.5 34L186 51" stroke="black" stroke-width="2" />
  <path d="M13.5 4.5V55M9 53L50.5 30.5L9 6.5" stroke="black" />
  <path d="M167 26.5V45" stroke="black" stroke-width="2" />
  <path d="M172.5 35.9999C174.5 32.5 181 33.5 181 38.4999C181 42.8999 181 44.9999 181 45.4999" stroke="black" stroke-width="2" />
  <path d="M181 40.5664C179.579 36.9886 172 36.8991 172 41.908C172 46.917 181 45.0387 181 41.908" stroke="black" stroke-width="2" />
  <path d="M125 33.5C125 37 125 44.6 125 47C125 51 117 52.5 115.5 48.5" stroke="black" stroke-width="2" />
  <path d="M129 26.5V45M134.5 41L143 37C142 35.6667 139.3 33.4 136.5 35C133 37 133.5 41 135 43C136.5 45 140.5 45 143 43M152.5 45V37M152.5 37V27C153.833 27 157 27 159 27C164.5 27 164.5 37 159 37C155 37 153 37 152.5 37Z" stroke="black" stroke-width="2" />
  <path d="M14 9.5L40.5 36M14 50L40 24.5" stroke="black" />
  <path d="M90.5 45C87.5 45 85 42.5 85 39.5C85 36.5 87.4624 34 90.5 34C93.5376 34 96 36 96 39.5C96 43 93.5 45 90.5 45Z" stroke="black" stroke-width="2" />
  <path d="M108.186 35.4521C110.521 37.335 110.899 40.8504 109.016 43.1859C107.133 45.5214 103.646 45.922 101.282 44.0155C98.917 42.109 98.2553 39.0064 100.452 36.2817C102.649 33.557 105.85 33.5691 108.186 35.4521Z" stroke="black" stroke-width="2" />
  <path d="M113.471 10.8757C115.416 12.4443 115.731 15.3727 114.162 17.3182C112.594 19.2638 109.689 19.5976 107.72 18.0094C105.75 16.4212 105.198 13.8366 107.028 11.5668C108.858 9.29703 111.525 9.30714 113.471 10.8757Z" stroke="black" />
  <path d="M119.5 45C116.5 45 114 42.5 114 39.5C114 36.5 116.462 34 119.5 34C122.538 34 125 36 125 39.5C125 43 122.5 45 119.5 45Z" stroke="black" stroke-width="2" />
  <path d="M79 29C74.5 24 63.9999 27.1637 64 36C64.0001 45 79 48.5 81.5 36.5H73.4999" stroke="black" stroke-width="2" />
  <path d="M70.7143 11.216C68.4 8.65473 63 10.2754 63 14.8018C63 19.4122 70.7143 21.2051 72 15.058H67.8857" stroke="black" />
  <path d="M79 10.5H75V14.5M79 18.5H75V14.5M79 14.5H75" stroke="black" />
  <path d="M117.5 19V10.5L123.5 19V9.5" stroke="black" stroke-linejoin="bevel" />
  <path d="M81.5 10.5H84M87 10.5H84M84 18.5V10.5M92.5 10.5V18.5" stroke="black" />
  <path d="M95.5 10.5H98M101 10.5H98M98 18V10.5" stroke="black" />
  <rect x="0.5" y="0.5" width="207" height="58" stroke="black" />
</svg>