<svg viewBox="0 0 99 100" fill="none" xmlns="http://www.w3.org/2000/svg">
<path d="M83.9 82.8L83.9 43.5" stroke-miterlimit="10"/>
<path d="M69.3 43L69.3 93.2"  stroke-miterlimit="10"/>
<path d="M55.1 46V97.1" stroke-miterlimit="10"/>
<path d="M41 52V97"   stroke-miterlimit="10"/>
<path d="M26.8 53V91.6"  stroke-miterlimit="10"/>
<path d="M12.7 52.7V80.2"  stroke-miterlimit="10"/>
<path d="M97 47.8728C97 47.8728 75.9557 36.4832 49.9008 48.5299C23.846 60.5766 2 48.968 2 48.968"  stroke-miterlimit="10"/>
<path d="M49.3 97.6C75.4231 97.6 96.6 76.4231 96.6 50.3C96.6 24.1769 75.4231 3 49.3 3C23.1769 3 2 24.1769 2 50.3C2 76.4231 23.1769 97.6 49.3 97.6Z"  stroke-miterlimit="10"/>
</svg>
