<svg   viewBox="0 0 100 100" fill="none" xmlns="http://www.w3.org/2000/svg">
<path d="M14 15L36 38" />
<path d="M50 64C56.6274 64 62 58.6274 62 52C62 45.3726 56.6274 40 50 40C43.3726 40 38 45.3726 38 52C38 58.6274 43.3726 64 50 64Z" />
<path d="M83 84C64.7128 102.667 35.2872 102.667 17 84" />
<path d="M8 52C8 53.6569 6.65685 55 5 55C3.34314 55 2 53.6569 2 52C2 50.3431 3.34314 49 5 49C6.65685 49 8 50.3431 8 52Z" fill="currentColor" />
<path d="M98 52C98 53.6569 96.6569 55 95 55C93.3431 55 92 53.6569 92 52C92 50.3431 93.3431 49 95 49C96.6569 49 98 50.3431 98 52Z" fill="currentColor" />
<path d="M53 5C53 6.65685 51.6569 8 50 8C48.3431 8 47 6.65686 47 5C47 3.34315 48.3431 2 50 2C51.6569 2 53 3.34315 53 5Z" fill="currentColor" />
<path d="M84 19C84 20.6569 82.6569 22 81 22C79.3431 22 78 20.6569 78 19C78 17.3431 79.3431 16 81 16C82.6569 16 84 17.3431 84 19Z" fill="currentColor" />
</svg>
